<svg xmlns="http://www.w3.org/2000/svg" viewBox="0 0 1322.79 577.74"><defs><style>.cls-1{fill:#fff;}.cls-2{fill:#a995c2;}</style></defs><g id="Layer_2" data-name="Layer 2"><g id="Layer_1-2" data-name="Layer 1"><path class="cls-1" d="M1255.33,577.58a70.52,70.52,0,0,1-39.41-12.37,145,145,0,0,1-21.82-16.72l-1.14-1c-6.1-5.4-12.11-10.84-17.92-16.09-8.49-7.68-16.66-15.06-24.82-22.13-3.1,2.92-6.18,5.78-9.21,8.61-9.88,9.19-19.2,17.87-27.31,26.63a115.19,115.19,0,0,1-25.65,20.57l-.09.06a76.17,76.17,0,0,1-30.62,10.61,71.47,71.47,0,0,1-8.1.46,66.93,66.93,0,0,1-51.38-23.63,67.79,67.79,0,0,1-14.66-55.34,84.92,84.92,0,0,1,8-24.09l.34-.69a194.22,194.22,0,0,1,9.48-17c-11.92-3.52-21-8.74-27.12-12.24l-2-1.12-.11-.06c-24.16-13.67-37.19-38.89-34-65.81a66.29,66.29,0,0,1,34.05-50.34,69.52,69.52,0,0,1,21-7.32c4.81-.89,9.69-1.71,14.9-2.52,13.1-2,25.87-4.39,40-7.47,11.59-3.73,23.48-6.56,35.23-9.11a583.79,583.79,0,0,1,40.19-61.35,58.14,58.14,0,0,0,4.63-7,79.5,79.5,0,0,1,13.41-18.65,65.74,65.74,0,0,1,109.08,23.32h0a78.62,78.62,0,0,1,4.23,34.51v.16q-.27,3.57-.47,7.31a66,66,0,0,1,48,92.43,89.46,89.46,0,0,1-7.92,14.37c-5.09,7.46-10.45,15.07-16.34,22.62q5.27,8.56,10.36,17,3.57,5.92,7.18,11.82a234,234,0,0,1,22.09,47.14,73.68,73.68,0,0,1,5.25,23,67.62,67.62,0,0,1-67.35,71.53Z"/><path class="cls-2" d="M1255.33,545.58c-11.17,0-19.11-5.3-22.1-7.29l-.18-.12a114.12,114.12,0,0,1-17.69-13.59l-1.18-1.05c-6-5.29-11.92-10.67-17.68-15.88-12.41-11.22-24.14-21.82-36.42-32-4.26-3.53-8-6.45-11.5-8.93a62.08,62.08,0,0,0-5.52,4.88c-7.89,8-16,15.53-23.86,22.83-10.32,9.61-20.07,18.69-29,28.33a83.26,83.26,0,0,1-18.56,14.82,44.43,44.43,0,0,1-17.93,6.36,40,40,0,0,1-4.48.25,35,35,0,0,1-26.92-12.26c-6.75-8-9.44-18.42-7.58-29.31a53.11,53.11,0,0,1,5-15l.34-.67a154.86,154.86,0,0,1,8.48-15.16c7-10.75,13.31-22.87,20.07-38.62l-3.88-1c-8.8-2.28-17.11-4.44-24.85-5.39-13.07-1.6-22.9-7.23-30.07-11.35-.72-.41-1.44-.83-2.17-1.23-15.28-8.65-19.33-23.35-18-34.23,1.35-11.57,9.77-26.41,29.07-29.95,4.53-.84,9.11-1.61,14-2.37,14.23-2.19,28.09-4.79,43.52-8.18,14.24-4.71,29.86-8,45-11.17l2.81-.6a545.86,545.86,0,0,1,44.85-70.46,88.44,88.44,0,0,0,7.23-11.13,47.3,47.3,0,0,1,8.12-11.4,33.73,33.73,0,0,1,56.12,12.13,47.11,47.11,0,0,1,2.34,20.89v.16c-.63,8.11-.92,16.36-1.23,25.1-.21,5.92-.42,11.94-.75,18q2.41-.43,4.77-.9l.58-.12a68.41,68.41,0,0,1,13.88-1.61c1.29,0,2.59.05,3.86.14a34.16,34.16,0,0,1,29,48.63,57.33,57.33,0,0,1-5.12,9.33c-8.14,11.94-17.55,25.22-29.54,37.74,7.93,12.17,15.38,24.47,22.65,36.46q3.62,6,7.24,11.92a201.36,201.36,0,0,1,19.35,41.49l0,.07c10.94,27.11-7.83,42.16-11.71,44.9A35.09,35.09,0,0,1,1255.33,545.58Z"/><path d="M1064.62,370.39c15.52-5.33,34.07-8.81,52.5-12.77,5.87-1.27,9.6-4.27,12.45-9.8a510,510,0,0,1,44.9-71.44,119.54,119.54,0,0,0,9.84-15.23,16.85,16.85,0,0,1,2.71-4c1.15-1.19,2.59-1.07,3.23.69.91,2.46.68,5,.48,7.58-1.58,20.63-1.18,41.36-3.44,61.95-.58,5.35.08,10.68.31,16,.13,3.17,1.18,4.42,4.71,4,13.18-1.46,26.31-3.31,39.32-5.88a35.86,35.86,0,0,1,9.68-1.07c2.59.19,3.21,1.57,2.24,3.77a28.09,28.09,0,0,1-2.32,4.28c-10.63,15.59-21.74,30.69-36.23,43.13-8.77,7.53-8.59,8.11-2.15,17.43,13.51,19.53,25.5,40,37.87,60.24a168.48,168.48,0,0,1,16.44,35.34c.87,2.65,3.16,6.12.06,8.32-2.57,1.82-5.23-.77-7.59-2.15-5.25-3.09-9.7-7.21-14.23-11.22-18.28-16.21-36.08-33-54.91-48.56a175.22,175.22,0,0,0-25-17.82c-5.44-3.1-10.07-3.12-15.51.42a117.35,117.35,0,0,0-19.68,15.47c-17.51,17.69-36.69,33.65-53.61,52a51.34,51.34,0,0,1-11.47,9.06,12.86,12.86,0,0,1-5.14,2c-3,.34-4.36-1-3.83-4.13a21.37,21.37,0,0,1,2-5.92,136.5,136.5,0,0,1,7.07-12.83c10.48-16.06,18.58-33.3,25.83-51,3.09-7.53,5.76-15.27,10.11-22.21,1.62-2.6.87-4.26-1.14-6a11.2,11.2,0,0,0-6.39-2.5c-20.43-2.13-39.62-10.09-60-12.58-7.57-.93-13.92-5.05-20.41-8.7-1-.58-2.13-1.28-2-2.6.2-1.73,1.8-2,3.11-2.24q6.53-1.2,13.08-2.21c15-2.3,29.82-5.07,47-8.88Z"/><path class="cls-1" d="M96.58,473.32c-16.42,0-40.24-5.68-60.48-32.79a82.38,82.38,0,0,1-15.79-37.76c-.1-.71-.24-1.46-.38-2.2-.34-1.94-.77-4.34-1.16-7.14-1-7.4-2.91-15.76-4.9-24.61-1.26-5.56-2.55-11.3-3.77-17.34a72.51,72.51,0,0,1-2-12.82c-.35-5.25-2.42-13-4.61-21.19L3,315.78A89.81,89.81,0,0,1,.44,283.94c.77-7.66.83-16.61.89-26.07,0-7,.09-14.29.42-22,.18-4.27-.15-9.91-.49-15.87C1,215.44.7,210.27.58,204.83.1,184.31,5.29,148.7,41.17,122.12a69.06,69.06,0,0,1,12.47-19.33C70.31,84.5,85.83,70.71,102.48,59.37c2-1.35,4.26-3,7.32-5.18l5.49-4c5-3.64,9.78-7.07,14.15-10.45A85.19,85.19,0,0,1,174.66,22.2c2.34-.2,4.63-.31,6.89-.31A75.57,75.57,0,0,1,227,37.07a79.34,79.34,0,0,1,38-9.83c33.69,0,62.17,21.4,72.55,54.53.15.49.3,1,.44,1.48a121.25,121.25,0,0,1,4.47,43.25c.06,1.06.3,3.23.48,4.86.27,2.52.58,5.38.83,8.6.76,10.06,2,20.4,3.22,31.35,1.75,15.17,3.56,30.86,4.41,47.41.16,3.19.49,6.9.85,10.82.68,7.55,1.45,16.11,1.47,25.59,0,4.13,1.15,10.32,2.43,16.83.3,1.55.6,3.07.9,4.59,2.76,13.94,5.9,29.75,6.19,47.88a125.85,125.85,0,0,1-4.72,35.29,80,80,0,0,1-51.48,55.38,102.68,102.68,0,0,1-34.15,6,94.61,94.61,0,0,1-28.47-4.36c-18.47-5.84-38-12.46-57.25-21.49l-1.71,2.85q-4.41,7.34-8.78,14.7c-5.22,8.85-12.38,21-22.92,32.77C137.33,464,118.09,473.32,96.58,473.32Z"/><path class="cls-1" d="M411.35,374.39c-31.44,0-62.37-8.34-91.94-24.81-20-11.16-36.4-25.63-48.7-43.06-11.79-11.7-20.08-26.28-24.64-43.41a221,221,0,0,1-6.4-79.43,102.18,102.18,0,0,0,.07-17.17c-11.69-28.63-5.39-58.43,17.27-80.44a132.87,132.87,0,0,1,20.91-16.41l.12-.07,2.82-1.82A70.05,70.05,0,0,1,287,43.27c9.14-20,26.61-34.4,49.18-40.49A81.84,81.84,0,0,1,357.59,0a110.22,110.22,0,0,1,12,.72l.22,0,8.55.89c19,1.94,40.48,4.14,62.58,9.74,12.43,3.15,31,8.94,49.23,22.81,1.38,1.06,3.66,2.8,4.47,3.31C518.45,52,537,73.36,549.74,101c.28.57.55,1.15.81,1.73,8.28,18.5,16.6,40.09,21.34,72.51.09.64.17,1.27.25,1.91l.06.55C574,193.5,577.44,223,569,255,554.18,311,517,350.64,464.2,366.49A183.85,183.85,0,0,1,411.35,374.39Z"/><path class="cls-1" d="M811.22,577.74a71.06,71.06,0,0,1-29.79-6.61c-5.41-2.48-12.6-4.79-20.22-7.24-8.87-2.84-18.92-6.07-29.42-10.54-3.92-1.66-7.25-3.35-9.68-4.57-.69-.36-1.39-.71-2.09-1a95.14,95.14,0,0,1-42.65-39.43c-8.48-15.21-12.57-32.5-12.17-51.39.27-12.15,1.1-24.73,2.61-39.6.46-4.48.84-8.88,1.15-13.23l-.92.06c-2.06.11-4.22.17-6.37.17a140.42,140.42,0,0,1-31.38-3.75A74.92,74.92,0,0,1,597,383.66C583.19,394.05,566.07,399.8,547,399.8c-2.49,0-5.06-.1-7.63-.29a200.44,200.44,0,0,1-45.19-8.8,78.71,78.71,0,0,1-48.38-109.18c3.53-7.64,6.21-16.95,8.68-30.18,1.16-6.25,2.43-12.1,3.66-17.75,1.7-7.84,3.3-15.24,4.16-21.7a93.88,93.88,0,0,0,.6-22c-1.47-14.18-2.38-26.32-2.82-37.68-1.81-5-3.26-9.63-4.58-13.84l-.2-.66a83,83,0,0,1-2.73-40.28c5.77-31.23,29.86-53.94,61.4-57.83l.27,0a85.82,85.82,0,0,1,12-.9,71.85,71.85,0,0,1,18,2.27c1.86.48,6,1,9.67,1.44a199.07,199.07,0,0,1,25.42,4.39c3.41.87,8.21,1.63,13.29,2.43q2.9.45,5.79.93l.4.06A86.19,86.19,0,0,1,614,53.63q3.75,1.24,7.26,2.81C639,48.5,656,37.9,670.71,28.27c8.76-5.72,19.63-12.84,33.06-18.62a113.12,113.12,0,0,1,39.85-9C744.8.56,746,.54,747.2.54c24.67,0,47.08,11.91,60,31.86s14.55,45.62,4.27,68.4c-1.73,3.83-3.47,7.08-4.94,9.7A155.11,155.11,0,0,1,804,131c3.51,30.06,11.14,61.06,18.51,91.05l2.53,10.3c12.09,49.1,24.58,99.87,34.25,151.31,2.58,13.77,5,27.57,7.26,40.91q1.44,8.31,2.88,16.62c1.18,6.71,2.47,11.56,4.07,15.26s2.74,7,3.56,9.32c.1.28.2.55.29.83,12.37,26.85,9.13,56.33-8.93,81C849.21,573.83,824.34,577.74,811.22,577.74Z"/><path class="cls-1" d="M892.51,497.48a89.62,89.62,0,0,1-41.66-10c-4.51-2.34-10.55-4.73-17-7.26-3.4-1.35-6.92-2.74-10.62-4.27-4.6-1.91-10.76-4.56-17.27-7.95-29.19-15.22-49.25-41.84-56.5-75-1.25-5.68-2.09-11-2.9-16.15-.34-2.14-.7-4.45-1.13-7-.13-.76-.25-1.52-.35-2.29-1-7.91-3.89-18.76-6.92-30.25-1.11-4.24-2.27-8.63-3.4-13.14-5.06-20.11-10.22-41.68-12.9-64.85q-.67-5.87-1.39-11.73c-1.52-12.74-3.1-25.91-4.2-39.51-1.19-14.63-4.12-30.18-7.23-46.64-.18-.94-.35-1.88-.53-2.83a101.42,101.42,0,0,1-4-11,197.62,197.62,0,0,1-8.06-41.88,108,108,0,0,1,.91-26c4.31-25.5,20.55-45.83,43.43-54.39a65.46,65.46,0,0,1,23-4.16c15.91,0,30.79,5.61,44.24,16.7,3.16,2.6,6.47,5.6,12,10.7l1.75,1.6a220.58,220.58,0,0,1,21.47,21.62c4.89,5.82,11.45,11.65,21.27,18.92A333.8,333.8,0,0,0,929.42,128c7.88,3.47,16.21,6.76,25,10.24,8.26,3.26,16.8,6.63,25.53,10.38,11,4.69,23.9,10.09,36.63,14.45a102.83,102.83,0,0,1,44.7,29.68l.23.2c1.65,1.39,3.33,2.75,5,4a61.76,61.76,0,0,1,5.16,4.4c14.31,13.56,22.87,29.44,25.43,47.21,2.52,17.48-1.68,31.6-3.7,38.38-3.42,11.54-13.15,32.86-39.66,45.63-15.75,7.59-30.62,9-40.44,9.3-2.71.1-5.48.15-8.26.15-15.85,0-30.79-1.59-44-3l-7.68-.81-11-1.11q13.35,24.84,24.36,50c.61,1.32,1.86,4,3.09,7.54a1.72,1.72,0,0,0,.07.21c7.74,22.37,5.77,45.32-5.54,64.62s-30.21,32.1-53.34,36.25A105,105,0,0,1,892.51,497.48Z"/><path class="cls-2" d="M96.54,441.16c-20,0-31.16-15-34.85-20A50.66,50.66,0,0,1,51.94,398c-.16-1-.35-2.12-.54-3.19-.31-1.75-.66-3.73-1-5.92-1.21-8.74-3.23-17.73-5.37-27.25-1.27-5.63-2.58-11.45-3.76-17.4A41.3,41.3,0,0,1,40,336.33c-.55-8.34-3-17.55-5.61-27.31l-.45-1.68A57.41,57.41,0,0,1,32.28,287c.93-9.18,1-18.86,1.06-29.1,0-6.74.1-13.72.4-20.86.25-5.84-.12-12.25-.5-19-.26-4.53-.53-9.2-.64-14.09-.42-18.53,5.64-43.71,35.7-61.56a36.36,36.36,0,0,1,9-18.18c15-16.38,28.68-28.62,43.22-38.51,2.92-2,5.87-4.11,8.11-5.74L134.11,76c5.25-3.79,10.2-7.37,15-11a53.58,53.58,0,0,1,28.51-11q2-.18,4-.18a42.66,42.66,0,0,1,39.7,26.13,148.38,148.38,0,0,0,13.93-10,48,48,0,0,1,29.83-10.72c19.41,0,35.91,12.61,42,32.12l.27.91a89.53,89.53,0,0,1,3.19,32.65,64.07,64.07,0,0,0,.63,9.91c.25,2.28.53,4.87.73,7.57.81,10.69,2,21.33,3.33,32.6,1.69,14.67,3.44,29.85,4.22,45.37.2,3.82.56,7.83.94,12.08.65,7.23,1.32,14.7,1.33,22.76,0,7,1.37,14.51,3,22.92.3,1.57.61,3.12.91,4.67,2.5,12.62,5.33,26.92,5.57,42.17a94.94,94.94,0,0,1-3.64,26.49c-4.31,16-15.4,27.91-31.22,33.47A70.69,70.69,0,0,1,272.89,389,62.44,62.44,0,0,1,254,386.09c-19-6-41-13.34-62.38-24.46A82,82,0,0,1,176,350.9c-5.89,10.44-12,20.59-18,30.55q-4.47,7.44-8.91,14.9c-4.81,8.15-10.8,18.28-19.25,27.74C126.08,428.31,114.61,441.15,96.54,441.16Z"/><path class="cls-2" d="M411.39,342.34c-25.95,0-51.66-7-76.42-20.8-16.73-9.32-30.09-21.42-39.76-36-8.76-7.94-14.88-18.3-18.21-30.79a189.1,189.1,0,0,1-5.45-68,138.67,138.67,0,0,0,0-24.92,15.46,15.46,0,0,0-1-5.07c-5.77-12.31-8.92-30.63,8.86-47.89a103.79,103.79,0,0,1,16-12.5c2.52-1.63,5.3-3.43,8.29-5.19A35,35,0,0,0,314,82.62a38.83,38.83,0,0,1,2.21-26.15c5.11-11.19,15.2-19.31,28.41-22.87a49.32,49.32,0,0,1,13-1.67,80.15,80.15,0,0,1,8.63.54l.23,0c2.9.31,5.75.6,8.61.89,18.75,1.93,38.15,3.93,58,9,9.69,2.46,24.14,6.92,37.67,17.25,2.52,1.92,5.11,3.9,7.19,5.17,18.46,11.24,32.89,28,42.9,49.89.18.36.35.72.52,1.09a224.22,224.22,0,0,1,18.85,64.06c0,.32.09.64.13,1l.06.54c1.58,13.75,4.54,39.35-2.37,65.48-12.06,45.55-40.79,76.32-83.1,89A152,152,0,0,1,411.39,342.34ZM377.77,233.1c7.69,1.31,15.94,2.79,25.66,4.6a53.54,53.54,0,0,0,9.76.82c1,0,2,0,3-.06,0-1.43,0-2.87,0-4.3.14-13.47.26-26.19-2-40.65-.09-.55-.16-1.09-.22-1.64-.18-1.54-1.3-6.08-6.83-19.06a2,2,0,0,0-.48-.71c-.61-.6-1.23-1.17-1.85-1.74-1-.93-2.16-2-3.39-3.22a53.07,53.07,0,0,1-25.28-7.57,57,57,0,0,0-3,5.9c11.39,17.32,13.89,37.32,7.27,58.06-1.19,3.71-2.11,6.78-2.71,9.5Z"/><path class="cls-2" d="M811.14,545.84a39.44,39.44,0,0,1-16.49-3.72c-7.12-3.27-15.19-5.86-23.74-8.61s-17.53-5.64-26.68-9.53c-3-1.26-5.5-2.55-7.76-3.69-.9-.46-1.81-.92-2.73-1.36-24.21-11.54-37.22-33.31-36.61-61.27.25-11.29,1-23.06,2.47-37.05a385.84,385.84,0,0,0,1.22-70q-1.2,2-2.57,3.92a41,41,0,0,1-31.94,17.67c-1.51.08-3.08.13-4.64.13a109.79,109.79,0,0,1-24.41-3c-14.28-3.2-25.83-13.24-31.67-27.56a79.11,79.11,0,0,1-5.18-17.11h0a9.72,9.72,0,0,0-1.48-1.89l-.65-.69c-.47,2.18-1,4.37-1.62,6.58-6.92,24.84-25,39.1-49.65,39.1-1.69,0-3.45-.07-5.23-.21a167.92,167.92,0,0,1-38-7.42,46.71,46.71,0,0,1-28.95-65.23c4.7-10.16,8.13-21.8,11.11-37.75,1.08-5.78,2.3-11.4,3.48-16.83,1.84-8.49,3.59-16.52,4.62-24.27a124.49,124.49,0,0,0,.71-29.54c-1.61-15.66-2.51-28.61-2.82-40.72a1.64,1.64,0,0,0-.1-.28c-2.33-5.89-4.14-11.68-5.74-16.79l-.2-.66a51.32,51.32,0,0,1-1.8-24.9c3.24-17.52,16.26-29.75,34-31.9l.6-.08a54.89,54.89,0,0,1,7.62-.6,40,40,0,0,1,10,1.25,111.57,111.57,0,0,0,13.79,2.23,169.06,169.06,0,0,1,21.44,3.66c4.85,1.23,10.34,2.1,16.16,3,1.93.3,3.85.61,5.78.93l.75.11A56.29,56.29,0,0,1,604,84a44.72,44.72,0,0,1,14.88,8.21c1.66-.76,3.32-1.47,5-2.11,23.61-9.16,45.83-22.84,64.44-35,8.12-5.31,17.31-11.31,28.2-16a81.34,81.34,0,0,1,28.64-6.44c.71,0,1.43,0,2.12,0,14,0,26,6.28,33.09,17.23s7.86,24.86,2,37.88c-1.62,3.58-3.38,6.67-4.79,9.14-.33.58-.66,1.16-1,1.74-.74,1.33-1.74,3.74-1.94,9.53a130.05,130.05,0,0,1-2.39,19l-.15.84a21.46,21.46,0,0,0,.06,6c3.68,32.35,11.61,64.64,19.28,95.87L794,240.11c12,48.67,24.33,99,33.81,149.56,2.53,13.53,4.89,27.21,7.16,40.43q1.44,8.36,2.9,16.71c1.61,9.24,3.58,16.37,6.19,22.42,1.16,2.7,2,5.21,2.75,7.23.3.87.69,2,1,2.66.07.16.15.31.22.47,4.48,9.47,9.73,28.48-5.48,49.25C832.19,542.89,819.76,545.84,811.14,545.84Z"/><path class="cls-2" d="M892.47,465.61a58,58,0,0,1-27-6.43,213.89,213.89,0,0,0-19.9-8.61c-3.28-1.3-6.67-2.65-10.12-4.08-4-1.67-9.35-4-14.75-6.78-20.93-10.91-34.76-29.4-40-53.45-1-4.79-1.78-9.42-2.56-14.33-.35-2.24-.73-4.65-1.18-7.33-.06-.37-.12-.75-.17-1.13-1.3-9.91-4.4-21.71-7.68-34.19-1.1-4.17-2.23-8.48-3.32-12.84-4.79-19.07-9.67-39.47-12.12-60.71q-.69-5.94-1.4-11.86c-1.48-12.44-3-25.3-4.06-38.29-1.32-16.31-4.4-32.67-7.66-50q-.63-3.32-1.24-6.63l-.15-.3a75.45,75.45,0,0,1-4-10.31,167.42,167.42,0,0,1-6.73-34.88A76.24,76.24,0,0,1,729,85.19c3.45-20.34,17.31-27.58,23.1-29.75a33.56,33.56,0,0,1,11.76-2.13c13.86,0,21.27,6.77,34.72,19.06L800.34,74a191.84,191.84,0,0,1,18.51,18.56c6.56,7.82,14.81,15.25,26.74,24.08a371.1,371.1,0,0,0,71,40.8c8.43,3.72,17,7.12,26.14,10.72,8,3.18,16.37,6.46,24.66,10,11.51,4.94,25.15,10.63,38.89,15.33,13.35,4.59,24.21,12,32.35,22.15l2.26,1.9c2,1.74,4.15,3.43,6.24,5a32,32,0,0,1,2.58,2.21c22.55,21.38,15.89,43.71,13,53.25-2.35,7.92-8.24,18.86-22.88,25.91-10.24,4.93-20.19,5.87-27.71,6.14-2.3.09-4.65.13-7,.13-14.19,0-27.65-1.44-40.67-2.83-2.61-.28-5.22-.56-7.84-.82-23-2.34-48.22-4.9-73.68-6.59a682.24,682.24,0,0,1,54.46,100.25l.07.18.12.24c.45,1,1.22,2.66,1.95,4.75a.56.56,0,0,1,0,.12c4.63,13.4,3.59,26.89-2.91,38S919.07,462,905.3,464.42A72.43,72.43,0,0,1,892.47,465.61Z"/><path d="M276.55,100.81a57.47,57.47,0,0,1,2.11,21.58c-.58,7.57.79,14.88,1.35,22.31,1.95,25.79,6.19,51.34,7.5,77.18.56,11.1,2.22,22.18,2.23,33.27,0,9.91,1.73,19.37,3.61,29,2.65,13.61,5.67,27.21,5.89,41.21a64.48,64.48,0,0,1-2.55,17.71c-1.55,5.78-5.18,9.54-10.93,11.57-7.33,2.57-14.87,3.22-22.09.94-19.56-6.19-39-12.84-57.25-22.34-8.49-4.42-14.95-11.34-21-18.59a125.26,125.26,0,0,1-15.7-23.46c-3.48,7.8-6.19,14.5-9.38,21-11.53,23.43-25.51,45.47-38.77,67.92-4.68,7.91-9.42,15.8-15.58,22.71-7.78,8.71-11.74,8.53-18.64-.72a18.8,18.8,0,0,1-3.74-8.71c-.43-3-1.06-5.91-1.47-8.88-2.2-15.91-6.48-31.4-9.57-47.13a26.89,26.89,0,0,1-.67-3.13c-.79-12-4-23.54-7.06-35.1a25.18,25.18,0,0,1-.71-8.9c1.74-17.25.86-34.57,1.59-51.83.5-11.79-.85-23.46-1.11-35.19-.41-17.92,9.69-28.28,24.38-35.7a11.24,11.24,0,0,1,4.93-1.26c4,0,6,1.7,6.1,5.72a42.84,42.84,0,0,1-.72,7.63c-2.43,16.06-4.83,32.13-4.9,48.43-.07,14.61,1.55,29,6.41,42.88a35.64,35.64,0,0,0,10.1,15.37c5.13,4.47,9.16,3.85,12.47-2.1,3.89-7,5.81-14.72,7-22.56a180.19,180.19,0,0,0-2.44-68.13,76,76,0,0,0-8.1-21.5c-3.07-5.28-6.88-9.84-12.13-13-3.08-1.85-5.06-4.55-6.93-7.38-1.25-1.88-1.58-3.91.21-5.87,11.39-12.48,23.56-24.08,37.58-33.62,3-2.05,6-4.16,8.9-6.29,7.09-5.16,14.25-10.21,21.18-15.57a21.75,21.75,0,0,1,11.8-4.45c6-.53,10.94,3,12.11,8.9a20.24,20.24,0,0,1,.17,7c-1.35,9.06-2.37,18.18-3.86,27.24a109.69,109.69,0,0,0,.17,38.88c4,20.82,6.62,41.85,10.38,62.7a132.86,132.86,0,0,0,5,19.86c1.48,4.26,3.21,8.41,6.41,11.71,2.77,2.86,4.23,2.86,6.89-.11,4.41-4.91,6.73-10.81,7.89-17.26,2.58-14.28-.09-28.07-3.79-41.78-3.75-13.91-9.05-27.16-17.5-38.94-4.3-6-5.05-13-5.71-19.86-.38-4,2.06-7.44,4.68-10.27,8-8.63,16.55-16.65,27.12-22.29A160.92,160.92,0,0,0,255.29,94.8c6.61-5.31,17.48-6.08,21.27,6Z"/><path d="M492.2,128.82c6.82,15.24,12.78,30.76,16.4,55.61,1.45,12.62,4,33.6-1.46,54.18-8.67,32.75-27.94,56.52-61.35,66.55s-65.11,5.22-95.24-11.57c-11.9-6.63-22.1-15.32-29.51-27a23.71,23.71,0,0,0-4.31-4.71c-4.61-4.17-7.23-9.43-8.8-15.34a156.19,156.19,0,0,1-4.54-56.5,170.86,170.86,0,0,0,.05-30.68,46.25,46.25,0,0,0-3.95-16.11c-2.49-5.33-2-7.34,2.17-11.37a71.6,71.6,0,0,1,11.15-8.61c2.33-1.5,4.67-3,7.06-4.42a65.1,65.1,0,0,0,22.31-20.6c4.65-7,7.82-12.77,3.71-21.29-3-6.24.16-10.6,7.09-12.46,3.4-.92,6.83-.53,10.2-.18,20.81,2.22,41.68,3.87,62.08,9,9.48,2.41,18.33,5.73,26.13,11.68a116.09,116.09,0,0,0,9.94,7c14.44,8.79,24.06,21.57,30.85,36.74Zm-44,112.42c.09-16.43.77-32.88-2.32-52.67-.8-7.72-4.86-18.07-9.22-28.3a34.13,34.13,0,0,0-7.55-11.05c-2.75-2.7-5.78-5.17-8.14-8.18-3.95-5-8.77-6.74-15-6s-11.62-1.18-16.62-5.22c-6.19-5-13.73-6.8-21.63-6.35-3.4.2-7.25,1.17-9.08,4.06-5.68,9-11.95,17.69-15.82,27.8-3.7,9.63-2.83,18.48,3,26.75,7,9.93,7.79,20.49,4.19,31.73a104.18,104.18,0,0,0-4.57,18.64,18.29,18.29,0,0,0,1.25,10,59.82,59.82,0,0,0,7.54,12.61,23.61,23.61,0,0,0,15,9c9.48,1.59,18.95,3.3,28.4,5.06a96.52,96.52,0,0,0,26.83.8c2.51-.23,5.3-.12,7.37-1.82,8.56-7.06,16.36-14.66,16.42-26.91Z"/><path d="M819,493.26c2.92,6.19,1.42,11.51-2.37,16.68-2.67,3.65-4.75,4.89-8.69,3.08-16.57-7.59-34.49-11.37-51.21-18.49-3.14-1.33-6.13-3-9.22-4.47-13.37-6.38-18.73-17.35-18.41-31.7.25-11.54,1.13-23,2.3-34.49,3.75-36.69,3.53-73.3-3.13-109.72-3.64-20-7.31-39.94-10.57-60-1.51-9.27-5.81-16.85-11.76-23.78-3.06-3.56-6.3-5-11.2-3-12.73,5.27-12.3,2.86-14.21,17.24-3.27,24.78-5,49.67-3.39,74.66a25.26,25.26,0,0,1-5.06,16.77,9.19,9.19,0,0,1-7.5,4.17,74.39,74.39,0,0,1-20.35-2.13c-4.44-1-7.36-4.29-9-8.43A49.89,49.89,0,0,1,632,319.33c-1.22-7.15-4.72-13.11-9.69-18.41-10.52-11.23-21.15-22.36-30.56-34.58a22.32,22.32,0,0,0-6.37-5.27c-4-2.44-11.37.4-12.09,5.09-1.13,7.38-2.46,14.72-3.06,22.22-.87,10.64-1.49,21.46-4.35,31.73-3.4,12.21-10.05,16.46-21.64,15.58a136.24,136.24,0,0,1-30.75-6c-9.71-3.07-13.79-12.12-9.55-21.28,6.7-14.47,10.61-29.71,13.52-45.31,2.67-14.27,6.45-28.32,8.37-42.76a157.78,157.78,0,0,0,.83-37c-1.32-12.76-2.34-25.53-2.67-38.35a32.38,32.38,0,0,0-2.35-11.19c-2-5-3.55-10.08-5.14-15.18a19.64,19.64,0,0,1-.88-9.5c.72-3.87,2.4-5.5,6.36-6,2.11-.26,4.39-.73,6.37-.22,11.62,3,23.76,3,35.36,5.92,8.12,2.06,16.37,3.14,24.59,4.51a37,37,0,0,1,5.66,1.1c5.59,1.86,7.25,4.89,6.5,10.7-.58,4.39-2.54,8.12-4.9,11.71-1.07,1.63-2.12,3.13-1,5.28,4.75,9.49,5.71,20.11,8.79,30.11,3,9.81,6.33,19.52,10.2,29a1.81,1.81,0,0,0,1.8,1.35c4-14.85,8.72-29.6,9.57-45.21a23.19,23.19,0,0,0-2-11.23,48.3,48.3,0,0,1-2.72-7.19c-1.85-6.54-.32-10.59,5.55-14.14a63.25,63.25,0,0,1,9.75-4.85c25.07-9.72,48-23.41,70.39-38.06,7.5-4.9,15-9.81,23.34-13.38a48.88,48.88,0,0,1,17.42-3.87c6.73-.31,9.39,3.73,6.6,9.91-1.32,2.92-3,5.68-4.56,8.48-4.17,7.47-5.67,15.52-6,24a109.57,109.57,0,0,1-2,15.24,51.82,51.82,0,0,0-.25,15.28c3.86,33.86,11.9,66.86,20,99.87,12.89,52.51,26,105,36,158.15,3.53,18.89,6.67,37.83,10,56.76a131,131,0,0,0,8.33,29.57c1.6,3.73,2.63,7.72,4.36,11.37Z"/><path d="M1027.69,248c7.77,7.37,7,12.05,4.41,20.9-.93,3.13-3.33,4.89-6.1,6.22-4.74,2.28-9.83,2.81-15,3-17.16.62-34.12-1.65-51.13-3.38-34.87-3.54-69.75-7-104.81-8.21-2.93-.1-5.46-.2-7.22,2.76a6.37,6.37,0,0,1-3.12,2.11c-5.33,2.05-7.21,5.83-6.85,11.46a28.7,28.7,0,0,0,5.26,15.39,658.14,658.14,0,0,1,65,114.78c.42,1,.92,1.94,1.27,2.94,3.07,8.9-.33,15.29-9.71,17-6.53,1.17-13.16,1.09-19.39-2.14-10.46-5.44-21.6-9.31-32.46-13.83-4.15-1.72-8.27-3.53-12.25-5.61-13-6.78-20.47-17.8-23.55-31.9-1.28-5.85-2-11.81-3.44-20.15-2.06-15.62-7.27-33-11.7-50.64-4.68-18.66-9.15-37.42-11.36-56.58-1.88-16.34-4-32.68-5.36-49.07-1.66-20.54-5.76-40.65-9.51-60.83-1-5.45-3-7.18-4.87-13.17-5.59-18.29-8-41.5-2.47-43.58,1.46-.54,2.91.72,13.7,10.57,6,5.49,12.12,10.89,17.35,17.12,9.42,11.23,20.44,20.52,32.21,29.23a399.9,399.9,0,0,0,77.14,44.36c16.82,7.42,34.17,13.61,51.07,20.87,13.56,5.82,27.19,11.43,41.15,16.21,7.68,2.63,14.25,6.86,19,13.55a62.34,62.34,0,0,0,5.27,4.63C1023.32,244.61,1026,246.67,1027.69,248ZM903,240.81a19.56,19.56,0,0,0,8.09-3A94,94,0,0,0,896,231.49c-13-4.55-25.39-10.17-36.66-18.15-6.81-4.82-13.56-9.71-20.41-14.48-2.74-1.91-5.65-3.56-8.11-5.09-1.41.8-1.29,1.47-1.3,2.07q-.12,21.45-.19,42.88c0,5.14,1.85,7.33,7.4,7.53,8.53.31,17.06.85,25.6.12C876,245.2,889.52,243.1,903,240.8Z"/><rect class="cls-1" x="932.51" y="326.45" width="33" height="33"/></g></g></svg>